<?xml version="1.0" encoding="utf-8"?>
<!-- Generator: Adobe Illustrator 20.1.0, SVG Export Plug-In . SVG Version: 6.00 Build 0)  -->
<!DOCTYPE svg PUBLIC "-//W3C//DTD SVG 1.1//EN" "http://www.w3.org/Graphics/SVG/1.1/DTD/svg11.dtd">
<svg version="1.1" id="Layer_1" xmlns="http://www.w3.org/2000/svg" xmlns:xlink="http://www.w3.org/1999/xlink" x="0px" y="0px"
	 viewBox="0 0 152 52" style="enable-background:new 0 0 152 52;" xml:space="preserve">
<style type="text/css">
	.st0{fill:#FFFFFF;}
</style>
<title>Artboard 1</title>
<path class="st0" d="M125.8,21.2L125.8,21.2z"/>
<path class="st0" d="M125.8,21.7v-0.4V21.7z"/>
<path class="st0" d="M125.8,21.7L125.8,21.7z"/>
<path class="st0" d="M125.8,21.8L125.8,21.8z"/>
<path class="st0" d="M125.8,21.2L125.8,21.2z"/>
<path class="st0" d="M125.8,21"/>
<path class="st0" d="M126.1,2c-13.3,0-24,10.7-24,24s10.7,24,24,24s24-10.7,24-24S139.4,2,126.1,2L126.1,2z M126.1,47.1
	c-11.7,0-21.1-9.5-21.1-21.1c0-11.7,9.5-21.1,21.1-21.1s21.1,9.5,21.1,21.1l0,0C147.3,37.7,137.8,47.1,126.1,47.1
	C126.2,47.2,126.1,47.2,126.1,47.1L126.1,47.1z"/>
<path class="st0" d="M136,19.4c-1.3,0.5-1.5,0.4-0.8-0.3c0.5-0.5,0.8-1.1,1-1.7c0,0-0.2,0-0.5,0.2c-0.4,0.2-0.9,0.4-1.3,0.5
	l-0.8,0.3l-0.8-0.5c-0.4-0.3-0.8-0.5-1.3-0.7c-0.9-0.2-1.8-0.2-2.7,0.1c-1.9,0.7-3.1,2.6-3,4.6v0.8l-0.8-0.1
	c-2.8-0.4-5.3-1.7-7.3-3.7l-1-1l-0.3,0.8c-0.6,1.6-0.2,3.5,0.9,4.8c0.6,0.7,0.5,0.8-0.6,0.4c-0.4-0.1-0.7-0.2-0.7-0.2
	c0,0.7,0.2,1.5,0.6,2.2c0.5,0.9,1.2,1.6,2.1,2.1l0.8,0.4h-0.9c-0.8,0-0.9,0-0.8,0.4c0.5,1.3,1.6,2.2,2.9,2.6l0.9,0.3l-0.8,0.5
	c-1.2,0.7-2.6,1.2-4.1,1.2c-0.4,0-0.8,0-1.2,0.1c0.9,0.6,1.9,1.1,2.9,1.4c3.4,1,7,0.6,10-1.2c2.3-1.5,4-3.7,5.1-6.2
	c0.6-1.6,0.9-3.2,1-4.8c0-0.7,0-0.8,0.9-1.7c0.4-0.4,0.7-0.8,1.1-1.2C136.8,19.1,136.8,19.1,136,19.4z"/>
<path class="st0" d="M76.1,2c-13.3,0-24,10.7-24,24s10.7,24,24,24s24-10.7,24-24S89.4,2,76.1,2z M76.1,47.1C64.5,47.1,55,37.7,55,26
	S64.5,4.9,76.1,4.9S97.2,14.3,97.2,26l0,0C97.3,37.7,87.8,47.1,76.1,47.1C76.2,47.2,76.1,47.2,76.1,47.1L76.1,47.1z"/>
<path class="st0" d="M86.7,16.9c-0.2-1-0.9-1.8-1.9-1.9h-0.1H67.7l-0.3,0.1c-0.9,0.2-1.6,1-1.8,2v0.1v17.7c0,0.1,0,0.2,0.1,0.3
	c0.2,0.9,1,1.7,1.9,1.8h0.1h16.9l0.3-0.1c0.9-0.2,1.6-0.9,1.7-1.8c0-0.1,0-0.2,0-0.3V17.2C86.7,17.1,86.7,17,86.7,16.9z M81.6,16.8
	h2c0.5,0,0.9,0.4,0.9,0.9c0,0,0,0,0,0c0,0.7,0,1.4,0,2.1c0,0.5-0.3,0.8-0.8,0.9h-2c-0.4,0-0.7-0.2-0.8-0.6c0-0.1,0-0.2-0.1-0.3
	c0-0.7,0-1.4,0-2.1C80.7,17.2,81.1,16.8,81.6,16.8L81.6,16.8z M76.1,21.6c2.5-0.1,4.6,1.8,4.7,4.3c0.1,2.5-1.8,4.6-4.3,4.7
	c-2.5,0.1-4.6-1.8-4.7-4.3c0-0.1,0-0.2,0-0.2C71.8,23.6,73.7,21.6,76.1,21.6L76.1,21.6z M84.4,24c0,3.3,0,6.5,0,9.8
	c0,0.5-0.4,0.9-0.8,0.9H68.7c-0.5,0-0.8-0.4-0.8-0.9c0-3.3,0-6.5,0-9.8v0h2c-0.5,1.8-0.4,3.7,0.5,5.4c0.6,1.1,1.5,2,2.6,2.6
	c2.2,1.3,4.9,1.1,6.9-0.3c0.8-0.6,1.4-1.3,1.9-2.1c0.5-0.8,0.8-1.8,0.9-2.8c0.1-1,0-2-0.3-2.9L84.4,24L84.4,24z"/>
<path class="st0" d="M27.9,20.5c0-1,0.1-1.5,1.6-1.5h2v-3.6h-3.2c-3.8,0-5.1,1.8-5.1,4.7v2.2h-2.3V26h2.3v10.6h4.7V26H31l0.4-3.6
	h-3.5L27.9,20.5z"/>
<path class="st0" d="M26.1,2c-13.3,0-24,10.7-24,24s10.7,24,24,24s24-10.7,24-24l0,0C50.1,12.7,39.4,2,26.1,2z M26.1,47.1
	C14.5,47.1,5,37.7,5,26S14.5,4.9,26.1,4.9S47.2,14.3,47.2,26v0C47.3,37.7,37.8,47.1,26.1,47.1C26.1,47.1,26.1,47.1,26.1,47.1
	L26.1,47.1z"/>
</svg>
